<?xml version="1.0" encoding="UTF-8" standalone="no"?>
<!-- Created with Inkscape (http://www.inkscape.org/) -->

<svg
   xmlns:dc="http://purl.org/dc/elements/1.1/"
   xmlns:cc="http://creativecommons.org/ns#"
   xmlns:rdf="http://www.w3.org/1999/02/22-rdf-syntax-ns#"
   xmlns:svg="http://www.w3.org/2000/svg"
   xmlns="http://www.w3.org/2000/svg"
   xmlns:sodipodi="http://sodipodi.sourceforge.net/DTD/sodipodi-0.dtd"
   xmlns:inkscape="http://www.inkscape.org/namespaces/inkscape"
   width="765"
   height="990"
   id="svg2"
   sodipodi:version="0.32"
   inkscape:version="0.48.4 r9939"
   version="1.0"
   sodipodi:docname="big_board_UAF.svg"
   inkscape:output_extension="org.inkscape.output.svg.inkscape">
  <defs
     id="defs4" />
  <sodipodi:namedview
     id="base"
     pagecolor="#ffffff"
     bordercolor="#666666"
     borderopacity="1.0"
     gridtolerance="10000"
     guidetolerance="10"
     objecttolerance="10"
     inkscape:pageopacity="0.0"
     inkscape:pageshadow="2"
     inkscape:zoom="0.175"
     inkscape:cx="2471.3177"
     inkscape:cy="1660.107"
     inkscape:document-units="cm"
     inkscape:current-layer="layer1"
     width="765px"
     height="990px"
     gridanglex="0.33333333in"
     gridanglez="0.33333333in"
     grid_units="in"
     inkscape:window-width="1535"
     inkscape:window-height="876"
     inkscape:window-x="65"
     inkscape:window-y="24"
     showgrid="false"
     inkscape:window-maximized="1"
     units="in">
    <inkscape:grid
       id="GridFromPre046Settings"
       type="xygrid"
       originx="0px"
       originy="0px"
       spacingx="0.011111111in"
       spacingy="0.011111111in"
       color="#3f3fff"
       empcolor="#3f3fff"
       opacity="0.15"
       empopacity="0.38"
       empspacing="5"
       units="in"
       visible="true"
       enabled="true"
       snapvisiblegridlinesonly="true" />
  </sodipodi:namedview>
  <metadata
     id="metadata7">
    <rdf:RDF>
      <cc:Work
         rdf:about="">
        <dc:format>image/svg+xml</dc:format>
        <dc:type
           rdf:resource="http://purl.org/dc/dcmitype/StillImage" />
      </cc:Work>
    </rdf:RDF>
  </metadata>
  <g
     inkscape:label="Layer 1"
     inkscape:groupmode="layer"
     id="layer1">
    <path
       style="fill:#000000"
       d="m 2657.4803,795.1181 -1488.1889,0 0,-1488.18895 0,-1488.18895 1488.1889,0 1488.189,0 0,1488.18895 0,1488.18895 z"
       id="path3227"
       inkscape:connector-curvature="0"
       sodipodi:nodetypes="ccccccccc" />
    <path
       style="fill:#000000"
       d="m 4340.5513,361.063 0,-434.055119 434.0551,0 434.0551,0 0,434.055119 0,434.05511 -434.0551,0 -434.0551,0 z"
       id="path3229"
       inkscape:connector-curvature="0"
       sodipodi:nodetypes="ccccccccc" />
    <path
       style="fill:#000000;stroke:none;stroke-opacity:1;stroke-width:9;stroke-miterlimit:4;stroke-dasharray:none"
       d="m 540.35433,795.11816 -434.05512,0 0,-434.05512 0,-434.05511 434.05512,0 434.05511,0 0,434.05511 0,434.05512 -434.05511,0 z m 246.69929,-618.86764 -61.88677,0 0,185.66029 0,185.66029 -185.66029,0 -185.66029,0 0,-185.66029 0,-185.66029 -61.88677,0 -61.88676,0 0,185.66029 0,185.66029 61.88676,0 61.88677,0 0,61.88677 0,61.88676 185.66029,0 185.66029,0 0,-61.88676 0,-61.88677 61.88677,0 61.88676,0 0,-185.66029 0,-185.66029 -61.88676,0 z"
       id="path4292"
       inkscape:connector-curvature="0" />
    <rect
       style="color:#000000;fill:none;stroke:#000000;stroke-width:9;stroke-linecap:butt;stroke-linejoin:round;stroke-miterlimit:4;stroke-opacity:1;stroke-dasharray:none;stroke-dashoffset:0;marker:none;visibility:visible;display:inline;overflow:visible;enable-background:accumulate"
       id="rect2982"
       width="5305.9604"
       height="3357.1416"
       x="4.5"
       y="-2371.6416" />
    <text
       xml:space="preserve"
       style="font-size:144px;font-style:normal;font-variant:normal;font-weight:normal;font-stretch:normal;text-align:start;line-height:125%;letter-spacing:0px;word-spacing:0px;text-anchor:start;fill:#000000;fill-opacity:1;stroke:none;font-family:Arial;-inkscape-font-specification:Sans"
       x="2200.3093"
       y="1196.8119"
       id="text4186"
       sodipodi:linespacing="125%"><tspan
         sodipodi:role="line"
         id="tspan4188"
         x="2200.3093"
         y="1196.8119">Marker 236</tspan></text>
    <text
       xml:space="preserve"
       style="font-size:144px;font-style:normal;font-variant:normal;font-weight:normal;font-stretch:normal;text-align:start;line-height:125%;letter-spacing:0px;word-spacing:0px;text-anchor:start;fill:#000000;fill-opacity:1;stroke:none;font-family:Arial;-inkscape-font-specification:Sans"
       x="184.06693"
       y="1196.9525"
       id="text4190"
       sodipodi:linespacing="125%"><tspan
         sodipodi:role="line"
         id="tspan4192"
         x="184.06693"
         y="1196.9525">Marker 771</tspan></text>
    <text
       xml:space="preserve"
       style="font-size:144px;font-style:normal;font-variant:normal;font-weight:normal;font-stretch:normal;text-align:start;line-height:125%;letter-spacing:0px;word-spacing:0px;text-anchor:start;fill:#000000;fill-opacity:1;stroke:none;font-family:Arial;-inkscape-font-specification:Sans"
       x="4433.9326"
       y="1196.8822"
       id="text4272"
       sodipodi:linespacing="125%"><tspan
         sodipodi:role="line"
         x="4433.9326"
         y="1196.8822"
         id="tspan4276">Marker 816 (rot 90)</tspan></text>
    <path
       sodipodi:nodetypes="cc"
       inkscape:connector-curvature="0"
       id="path4286"
       d="m 0,-311.07648 c 1161.901,0 1168.872,-1616.24412 -2.3526346e-6,-1616.24412"
       style="opacity:0.74517373;color:#000000;fill:none;stroke:#000000;stroke-width:9;stroke-miterlimit:4;stroke-opacity:1;stroke-dasharray:none;marker:none;visibility:visible;display:inline;overflow:visible;enable-background:accumulate" />
    <path
       style="opacity:0.74517373;color:#000000;fill:none;stroke:#000000;stroke-width:9;stroke-miterlimit:4;stroke-opacity:1;stroke-dasharray:none;marker:none;visibility:visible;display:inline;overflow:visible;enable-background:accumulate"
       d="m 5302.5506,-311.07648 c -1161.901,0 -1168.872,-1616.24412 0,-1616.24412"
       id="path4290"
       inkscape:connector-curvature="0"
       sodipodi:nodetypes="cc" />
    <path
       inkscape:connector-curvature="0"
       id="path4321"
       d="m 787.05362,176.25052 -61.88677,0 0,185.66029 0,185.66029 -185.66029,0 -185.66029,0 0,-185.66029 0,-185.66029 -61.88677,0 -61.88676,0 0,185.66029 0,185.66029 61.88676,0 61.88677,0 0,61.88677 0,61.88676 185.66029,0 185.66029,0 0,-61.88676 0,-61.88677 61.88677,0 61.88676,0 0,-185.66029 0,-185.66029 z"
       style="fill:#ffffff;stroke:none;stroke-width:9;stroke-miterlimit:4;stroke-opacity:1;stroke-dasharray:none;fill-opacity:1"
       sodipodi:nodetypes="ccccccccccccccccccccccccc" />
    <path
       inkscape:connector-curvature="0"
       id="path3999"
       d="m 3503.3065,-53.614661 -212.1832,0 0,-636.549569 0,-636.54957 -212.1832,0 -212.1832,0 0,-212.1832 0,-212.1832 -212.1832,0 -212.1832,0 0,212.1832 0,212.1832 -212.1831,0 -212.1832,0 0,636.54957 0,636.549569 -212.1832,0 -212.1832,0 0,212.183191 0,212.18319 212.1832,0 212.1832,0 0,-212.18319 0,-212.183191 636.5495,0 636.5496,0 0,212.183191 0,212.18319 212.1832,0 212.1832,0 0,-212.18319 0,-212.183191 z m -848.7328,-424.366379 -212.1832,0 0,-424.36638 0,-424.36638 212.1832,0 212.1832,0 0,424.36638 0,424.36638 z"
       style="fill:#ffffff;fill-opacity:1"
       sodipodi:nodetypes="cccccccccccccccccccccccccccccccccccccccccc" />
    <path
       inkscape:connector-curvature="0"
       id="path4001"
       d="m 4588.0984,545.87553 0,-123.77353 185.6603,0 185.6602,0 0,-61.88677 0,-61.88676 -185.6602,0 -185.6603,0 0,-61.88677 0,-61.88676 185.6603,0 185.6602,0 0,-61.88677 0,-61.88676 -185.6602,0 -185.6603,0 0,61.88676 0,61.88677 -61.8868,0 -61.8868,0 0,61.88676 0,61.88677 61.8868,0 61.8868,0 0,61.88676 0,61.88677 -61.8868,0 -61.8868,0 0,123.77353 0,123.77352 61.8868,0 61.8868,0 z"
       style="fill:#ffffff;fill-opacity:1"
       sodipodi:nodetypes="ccccccccccccccccccccccccccccccccc" />
    <rect
       style="color:#000000;fill:none;stroke:#000000;stroke-width:0.44999999;stroke-linecap:butt;stroke-linejoin:round;stroke-miterlimit:4;stroke-opacity:1;stroke-dasharray:none;stroke-dashoffset:0;marker:none;visibility:visible;display:inline;overflow:visible;enable-background:accumulate"
       id="rect4003"
       width="4337.1431"
       height="200"
       x="971.42859"
       y="590" />
    <rect
       style="color:#000000;fill:none;stroke:#000000;stroke-width:0.45000002;stroke-linecap:butt;stroke-linejoin:round;stroke-miterlimit:4;stroke-opacity:1;stroke-dasharray:none;stroke-dashoffset:0;marker:none;visibility:visible;display:inline;overflow:visible;enable-background:accumulate"
       id="rect4005"
       width="4257.1431"
       height="337.14285"
       x="554.28571"
       y="510" />
  </g>
</svg>
